<svg width="97" height="20" viewBox="0 0 97 20" fill="none" xmlns="http://www.w3.org/2000/svg">
<path d="M27.9727 3.12324C27.6435 1.89323 26.6768 0.926623 25.4468 0.597366C23.2197 1.78814e-07 14.285 0 14.285 0C14.285 0 5.35042 1.78814e-07 3.12323 0.597366C1.89323 0.926623 0.926623 1.89323 0.597366 3.12324C1.78814e-07 5.35042 0 10 0 10C0 10 1.78814e-07 14.6496 0.597366 16.8768C0.926623 18.1068 1.89323 19.0734 3.12323 19.4026C5.35042 20 14.285 20 14.285 20C14.285 20 23.2197 20 25.4468 19.4026C26.6768 19.0734 27.6435 18.1068 27.9727 16.8768C28.5701 14.6496 28.5701 10 28.5701 10C28.5701 10 28.5677 5.35042 27.9727 3.12324Z" fill="#FF0000"/>
<path d="M8 9.375C8.84375 9.375 9.125 9.0625 9.125 8.29167V7.03125C9.125 5.375 9.97917 5 11.4583 5V6.02083C10.5938 6.02083 10.3854 6.36458 10.3854 7.13542V8.65625C10.3854 9.23438 10.1562 9.72396 9.16667 9.91667V10.0625C10.1562 10.2656 10.3854 10.75 10.3854 11.3229V12.8542C10.3854 13.6146 10.5938 13.9688 11.4583 13.9688V14.9896C9.97917 14.9896 9.125 14.6146 9.125 12.9583V11.6979C9.125 10.9271 8.84375 10.6042 8 10.6042V9.375Z" fill="white"/>
<path d="M20.5938 10.6042C19.75 10.6042 19.4688 10.9271 19.4688 11.6979V12.9583C19.4688 14.6146 18.6146 14.9896 17.1354 14.9896V13.9688C18 13.9688 18.2083 13.6146 18.2083 12.8542V11.3229C18.2083 10.75 18.4375 10.2656 19.4271 10.0625V9.91667C18.4375 9.72396 18.2083 9.23438 18.2083 8.65625V7.13542C18.2083 6.36458 18 6.02083 17.1354 6.02083V5C18.6146 5 19.4688 5.375 19.4688 7.03125V8.29167C19.4688 9.0625 19.75 9.375 20.5938 9.375V10.6042Z" fill="white"/>
<path d="M38.3845 17H35.9138L35.9333 15.0176H38.3845C39.1462 15.0176 39.755 14.8776 40.2107 14.5977C40.6664 14.3112 40.9952 13.875 41.197 13.2891C41.3988 12.7031 41.4998 11.9544 41.4998 11.043V8.72852C41.4998 8.02539 41.4412 7.42643 41.324 6.93164C41.2133 6.43034 41.0375 6.02344 40.7966 5.71094C40.5623 5.39193 40.253 5.15755 39.8689 5.00781C39.4848 4.85156 39.0225 4.77344 38.4822 4.77344H35.865V2.78125H38.4822C39.296 2.78125 40.0317 2.91146 40.6892 3.17188C41.3468 3.43229 41.9099 3.81641 42.3787 4.32422C42.8539 4.82552 43.2185 5.44727 43.4724 6.18945C43.7263 6.93164 43.8533 7.78451 43.8533 8.74805V11.043C43.8533 12.0065 43.7263 12.8594 43.4724 13.6016C43.2185 14.3372 42.8539 14.959 42.3787 15.4668C41.9034 15.9681 41.3305 16.349 40.6599 16.6094C39.9893 16.8698 39.2309 17 38.3845 17ZM37.2712 2.78125V17H34.8982V2.78125H37.2712ZM49.1228 17.1953C48.4392 17.1953 47.8305 17.0944 47.2966 16.8926C46.7628 16.6842 46.3103 16.3783 45.9392 15.9746C45.5681 15.5645 45.2849 15.0632 45.0896 14.4707C44.8943 13.8717 44.7966 13.1784 44.7966 12.3906V11.375C44.7966 10.4831 44.8975 9.71484 45.0994 9.07031C45.3077 8.41927 45.5942 7.88542 45.9587 7.46875C46.3233 7.05208 46.753 6.74284 47.2478 6.54102C47.7491 6.33919 48.2927 6.23828 48.8787 6.23828C49.5427 6.23828 50.1189 6.3457 50.6072 6.56055C51.0955 6.77539 51.4958 7.09766 51.8083 7.52734C52.1274 7.95703 52.3617 8.48763 52.5115 9.11914C52.6677 9.75065 52.7458 10.4766 52.7458 11.2969V12.4395H45.8904V10.7207H50.4998V10.4766C50.4867 9.99479 50.4281 9.58138 50.324 9.23633C50.2198 8.88477 50.0505 8.61784 49.8162 8.43555C49.5883 8.24674 49.2725 8.15234 48.8689 8.15234C48.5759 8.15234 48.3155 8.20768 48.0876 8.31836C47.8598 8.42904 47.671 8.60807 47.5212 8.85547C47.378 9.10286 47.2673 9.4349 47.1892 9.85156C47.1111 10.2617 47.072 10.7695 47.072 11.375V12.3906C47.072 12.918 47.1176 13.3639 47.2087 13.7285C47.3064 14.0931 47.4496 14.3926 47.6384 14.627C47.8272 14.8548 48.0551 15.0241 48.322 15.1348C48.5955 15.2389 48.9112 15.291 49.2693 15.291C49.7966 15.291 50.2491 15.1934 50.6267 14.998C51.0108 14.7962 51.3429 14.5358 51.6228 14.2168L52.6287 15.6133C52.4399 15.8672 52.186 16.1178 51.8669 16.3652C51.5479 16.6061 51.1606 16.8047 50.7048 16.9609C50.2556 17.1172 49.7283 17.1953 49.1228 17.1953ZM56.3845 15.1055L58.3376 6.43359H60.6912L57.6833 17H56.2283L56.3845 15.1055ZM54.9978 6.43359L57.0193 15.1348L57.1169 17H55.6716L52.6443 6.43359H54.9978ZM66.5759 2.78125V17H64.2126V2.78125H66.5759ZM70.199 2.78125V4.77344H60.6287V2.78125H70.199ZM75.322 14.5098V6.43359H77.5974V17H75.449L75.322 14.5098ZM75.6443 12.3027L76.3669 12.2832C76.3669 12.9928 76.3018 13.6471 76.1716 14.2461C76.0414 14.8451 75.8396 15.3659 75.5662 15.8086C75.2992 16.2448 74.9509 16.5866 74.5212 16.834C74.0981 17.0749 73.5903 17.1953 72.9978 17.1953C72.5616 17.1953 72.1612 17.1204 71.7966 16.9707C71.4386 16.821 71.1293 16.5898 70.8689 16.2773C70.615 15.9648 70.4164 15.5579 70.2732 15.0566C70.13 14.5553 70.0583 13.9564 70.0583 13.2598V6.43359H72.3337V13.2793C72.3337 13.6569 72.3663 13.9727 72.4314 14.2266C72.4965 14.474 72.5876 14.6758 72.7048 14.832C72.822 14.9818 72.9522 15.0892 73.0955 15.1543C73.2452 15.2129 73.4047 15.2422 73.574 15.2422C74.0883 15.2422 74.4952 15.1152 74.7947 14.8613C75.1007 14.6009 75.3188 14.2493 75.449 13.8066C75.5792 13.3639 75.6443 12.8626 75.6443 12.3027ZM78.8826 2H81.1482V14.7344L80.9724 17H78.8826V2ZM86.8416 11.3066V12.1367C86.8416 12.9831 86.7699 13.722 86.6267 14.3535C86.4835 14.985 86.2686 15.5124 85.9822 15.9355C85.6957 16.3587 85.3376 16.6745 84.908 16.8828C84.4783 17.0911 83.977 17.1953 83.4041 17.1953C82.8702 17.1953 82.408 17.0781 82.0173 16.8438C81.6332 16.6029 81.3077 16.2676 81.0408 15.8379C80.7804 15.4017 80.572 14.8841 80.4158 14.2852C80.266 13.6862 80.1554 13.0254 80.0837 12.3027V11.1406C80.1488 10.418 80.2563 9.75716 80.406 9.1582C80.5623 8.55273 80.7706 8.03516 81.031 7.60547C81.2914 7.16927 81.6169 6.83398 82.0076 6.59961C82.3982 6.35872 82.8604 6.23828 83.3943 6.23828C83.9737 6.23828 84.4783 6.34245 84.908 6.55078C85.3376 6.75911 85.6957 7.07487 85.9822 7.49805C86.2686 7.91471 86.4835 8.44206 86.6267 9.08008C86.7699 9.71159 86.8416 10.4538 86.8416 11.3066ZM84.5662 12.1367V11.3066C84.5662 10.7728 84.5369 10.3105 84.4783 9.91992C84.4262 9.5293 84.3318 9.20703 84.1951 8.95312C84.0649 8.69271 83.8826 8.4974 83.6482 8.36719C83.4138 8.23698 83.1176 8.17188 82.7595 8.17188C82.447 8.17188 82.1768 8.23372 81.949 8.35742C81.7276 8.48112 81.5388 8.6569 81.3826 8.88477C81.2263 9.10612 81.1026 9.36328 81.0115 9.65625C80.9203 9.94271 80.8585 10.252 80.8259 10.584V12.8594C80.8715 13.2956 80.9626 13.696 81.0994 14.0605C81.2426 14.4251 81.4477 14.7148 81.7146 14.9297C81.988 15.1445 82.3429 15.252 82.7791 15.252C83.1241 15.252 83.4106 15.1934 83.6384 15.0762C83.8663 14.959 84.0486 14.7734 84.1853 14.5195C84.3285 14.2656 84.4262 13.9434 84.4783 13.5527C84.5369 13.1556 84.5662 12.6836 84.5662 12.1367ZM91.7986 17.1953C91.115 17.1953 90.5063 17.0944 89.9724 16.8926C89.4386 16.6842 88.9861 16.3783 88.615 15.9746C88.2439 15.5645 87.9607 15.0632 87.7654 14.4707C87.5701 13.8717 87.4724 13.1784 87.4724 12.3906V11.375C87.4724 10.4831 87.5733 9.71484 87.7751 9.07031C87.9835 8.41927 88.2699 7.88542 88.6345 7.46875C88.9991 7.05208 89.4288 6.74284 89.9236 6.54102C90.4249 6.33919 90.9685 6.23828 91.5544 6.23828C92.2185 6.23828 92.7947 6.3457 93.283 6.56055C93.7712 6.77539 94.1716 7.09766 94.4841 7.52734C94.8031 7.95703 95.0375 8.48763 95.1873 9.11914C95.3435 9.75065 95.4216 10.4766 95.4216 11.2969V12.4395H88.5662V10.7207H93.1755V10.4766C93.1625 9.99479 93.1039 9.58138 92.9998 9.23633C92.8956 8.88477 92.7263 8.61784 92.4919 8.43555C92.2641 8.24674 91.9483 8.15234 91.5447 8.15234C91.2517 8.15234 90.9913 8.20768 90.7634 8.31836C90.5356 8.42904 90.3468 8.60807 90.197 8.85547C90.0538 9.10286 89.9431 9.4349 89.865 9.85156C89.7869 10.2617 89.7478 10.7695 89.7478 11.375V12.3906C89.7478 12.918 89.7934 13.3639 89.8845 13.7285C89.9822 14.0931 90.1254 14.3926 90.3142 14.627C90.503 14.8548 90.7309 15.0241 90.9978 15.1348C91.2712 15.2389 91.587 15.291 91.9451 15.291C92.4724 15.291 92.9249 15.1934 93.3025 14.998C93.6866 14.7962 94.0186 14.5358 94.2986 14.2168L95.3044 15.6133C95.1156 15.8672 94.8617 16.1178 94.5427 16.3652C94.2237 16.6061 93.8363 16.8047 93.3806 16.9609C92.9314 17.1172 92.4041 17.1953 91.7986 17.1953Z" fill="black"/>
</svg>
