<svg width="25" height="24" viewBox="0 0 25 24" fill="none" xmlns="http://www.w3.org/2000/svg">
<path d="M4.75 20C4.2 20 3.72933 19.8043 3.338 19.413C2.946 19.021 2.75 18.55 2.75 18V6C2.75 5.45 2.946 4.97933 3.338 4.588C3.72933 4.196 4.2 4 4.75 4H16.75C17.3 4 17.771 4.196 18.163 4.588C18.5543 4.97933 18.75 5.45 18.75 6V10.5L22.75 6.5V17.5L18.75 13.5V18C18.75 18.55 18.5543 19.021 18.163 19.413C17.771 19.8043 17.3 20 16.75 20H4.75ZM4.75 18H16.75V6H4.75V18ZM9.75 16H11.75V13H14.75V11H11.75V8H9.75V11H6.75V13H9.75V16Z" fill="#FF0000"/>
</svg>
